HIERARCHY
ROOT Hips
{
	OFFSET 0.00000 0.00000 0.00000
	CHANNELS 6 Xposition Yposition Zposition Zrotation Yrotation Xrotation 
	JOINT LHipJoint
	{
		OFFSET 0 0 0
		CHANNELS 3 Zrotation Yrotation Xrotation
		JOINT LeftHip
		{
			OFFSET 1.34019 -1.87553 0.90315
			CHANNELS 3 Zrotation Yrotation Xrotation
			JOINT LeftKnee
			{
				OFFSET 2.55316 -7.01474 0.00000
				CHANNELS 3 Zrotation Yrotation Xrotation
				JOINT LeftAnkle
				{
					OFFSET 2.64657 -7.27139 0.00000
					CHANNELS 3 Zrotation Yrotation Xrotation
					JOINT LeftToe
					{
						OFFSET 0.24207 -0.66507 2.14489
						CHANNELS 3 Zrotation Yrotation Xrotation
						End Site
						{
							OFFSET 0.00000 -0.00000 1.12451
						}
					}
				}
			}
		}
	}
	JOINT RHipJoint
	{
		OFFSET 0 0 0
		CHANNELS 3 Zrotation Yrotation Xrotation
		JOINT RightHip
		{
			OFFSET -1.28320 -1.87553 0.90315
			CHANNELS 3 Zrotation Yrotation Xrotation
			JOINT RightKnee
			{
				OFFSET -2.60484 -7.15674 0.00000
				CHANNELS 3 Zrotation Yrotation Xrotation
				JOINT RightAnkle
				{
					OFFSET -2.60296 -7.15159 0.00000
					CHANNELS 3 Zrotation Yrotation Xrotation
					JOINT RightToe
					{
						OFFSET -0.31082 -0.85398 2.28998
						CHANNELS 3 Zrotation Yrotation Xrotation
						End Site
						{
							OFFSET -0.00000 -0.00000 1.21611
						}
					}
				}
			}
		}
	}
	JOINT lowerback
	{
		OFFSET 0 0 0
		CHANNELS 3 Zrotation Yrotation Xrotation
		JOINT Chest
		{
			OFFSET -0.00160 2.05581 -0.15156
			CHANNELS 3 Zrotation Yrotation Xrotation
			JOINT Chest2
			{
				OFFSET 0.04594 2.06326 -0.01617
				CHANNELS 3 Zrotation Yrotation Xrotation
				JOINT lowerneck
				{
					OFFSET 0 0 0
					CHANNELS 3 Zrotation Yrotation Xrotation
					JOINT Neck
					{
						OFFSET 0.03753 1.73883 0.26751
						CHANNELS 3 Zrotation Yrotation Xrotation
						JOINT Head
						{
							OFFSET -0.09795 1.76129 -0.31794
							CHANNELS 3 Zrotation Yrotation Xrotation
							End Site
							{
								OFFSET -0.03611 1.79987 -0.13846
							}
						}
					}
				}
				JOINT LeftCollar
				{
					OFFSET 0 0 0
					CHANNELS 3 Zrotation Yrotation Xrotation
					JOINT LeftShoulder
					{
						OFFSET 3.30667 1.29205 -0.22445
CHANNELS 3 Zrotation Xrotation Yrotation
						JOINT LeftElbow
						{
OFFSET 0 -4.927850 -0.000000
CHANNELS 3 Zrotation Xrotation Yrotation
							JOINT LeftWrist
							{
OFFSET 0 -3.440520 0.000000
CHANNELS 3 Zrotation Xrotation Yrotation
								JOINT lhand
								{
									OFFSET 0 0 0
CHANNELS 3 Zrotation Xrotation Yrotation
									JOINT LFingers
									{
OFFSET 0 -0.654330 0.000000
CHANNELS 3 Zrotation Xrotation Yrotation
										End Site
										{
OFFSET 0 -0.527530 0.000000
										}
									}
								}
								JOINT LThumb
								{
OFFSET 0 0.000000 0.000000
CHANNELS 3 Zrotation Xrotation Yrotation
									End Site
									{
OFFSET 0 -0.535590 0.535590
									}
								}
							}
						}
					}
				}
				JOINT RightCollar
				{
					OFFSET 0 0 0
					CHANNELS 3 Zrotation Yrotation Xrotation
					JOINT RightShoulder
					{
						OFFSET -3.20032 1.49783 -0.27688
CHANNELS 3 Zrotation Xrotation Yrotation
						JOINT RightElbow
						{
OFFSET 0 -5.091810 -0.000000
CHANNELS 3 Zrotation Xrotation Yrotation
							JOINT RightWrist
							{
OFFSET 0 -3.498650 -0.000000
CHANNELS 3 Zrotation Xrotation Yrotation
								JOINT rhand
								{
									OFFSET 0 0 0
CHANNELS 3 Zrotation Xrotation Yrotation
									JOINT RFingers
									{
OFFSET 0 -0.666410 0.000000
CHANNELS 3 Zrotation Xrotation Yrotation
										End Site
										{
OFFSET 0 -0.537280 0.000000
										}
									}
								}
								JOINT RThumb
								{
OFFSET 0 0.000000 0.000000
CHANNELS 3 Zrotation Xrotation Yrotation
									End Site
									{
OFFSET 0 -0.545480 0.545480
									}
								}
							}
						}
					}
				}
			}
		}
	}
}
MOTION
Frames: 12
Frame Time: 0.008333333333333333
0.277874 17.189497 -12.275898 -6.750569 -5.189948 2.343983 0.000000 0.000000 0.000000 -17.871350 -1.458111 -28.053239 7.951596 16.083508 52.388145 0.740760 6.075553 -19.580472 0.488255 -4.480530 -12.432628 0.000000 0.000000 0.000000 16.641256 2.792632 -28.669937 -14.273876 -19.194563 73.038736 -0.888860 -12.297932 -26.153322 -0.342133 3.758292 -10.397659 -5.629651 0.577350 14.890494 1.474738 -0.059997 1.432486 4.786380 0.150599 -6.826946 8.494310 3.369640 -13.484798 -2.599514 3.279851 18.606488 -1.907211 1.889809 8.194239 0.000000 0.000000 0.000000 15.120795 7.034329 -21.103119 47.077091 -51.744961 23.859374 23.678307 -9.547766 10.945342 0.000000 0.000000 0.000000 -7.125000 0.000000 0.000000 -2.400829 18.062169 -1.539589 0.000000 0.000000 0.000000 -8.573105 15.072914 30.572911 -22.134512 -33.127918 -6.659606 -15.066440 -3.880669 3.179483 0.000000 0.000000 0.000000 7.125000 0.000000 0.000000 9.379318 33.166793 2.751591
0.262737 17.242172 -12.152724 -6.600470 -4.745983 2.451649 0.000000 0.000000 0.000000 -18.010362 -1.386310 -27.447148 7.789086 15.961616 51.798879 0.750959 5.613402 -19.355082 0.500846 -4.536858 -12.592114 0.000000 0.000000 0.000000 16.474024 2.686947 -30.678523 -13.778309 -19.044293 71.525289 -0.899259 -11.750938 -25.725506 -0.363240 3.871336 -10.714994 -5.888997 0.342852 15.060750 1.418663 -0.427058 1.433522 4.952168 -0.019905 -6.872898 8.641853 3.465497 -13.512615 -2.656558 3.387348 18.544973 -1.937658 1.943905 8.189430 0.000000 0.000000 0.000000 15.364331 5.939934 -22.359608 45.564747 -51.039268 22.677940 23.661072 -8.580784 11.609179 0.000000 0.000000 0.000000 -7.125000 0.000000 0.000000 -2.444027 17.345102 -1.605637 0.000000 0.000000 0.000000 -8.822661 15.385015 30.466414 -22.932761 -34.013363 -7.101437 -15.092582 -4.261832 3.269798 0.000000 0.000000 0.000000 7.125000 0.000000 0.000000 9.369361 33.259945 2.727294
0.245404 17.301567 -12.030645 -6.515865 -4.259246 2.543714 0.000000 0.000000 0.000000 -18.052362 -1.255677 -26.801008 7.604520 15.820191 51.124831 0.757837 5.043680 -19.037322 0.512728 -4.589610 -12.741725 0.000000 0.000000 0.000000 16.356586 2.614803 -32.525188 -13.252897 -18.870299 69.907953 -0.885979 -11.125456 -25.049357 -0.382340 3.970842 -10.994712 -6.116156 0.126565 15.267347 1.397792 -0.764770 1.455368 5.133068 -0.176748 -6.917676 8.793078 3.549933 -13.531748 -2.757051 3.487620 18.386938 -1.983779 1.989069 8.150982 0.000000 0.000000 0.000000 15.517594 4.788357 -23.520744 44.171539 -50.353445 21.599731 23.820967 -7.822719 12.220377 0.000000 0.000000 0.000000 -7.125000 0.000000 0.000000 -2.363640 16.667482 -1.587470 0.000000 0.000000 0.000000 -9.045633 15.734108 30.174486 -23.754486 -34.901633 -7.566404 -15.252961 -4.741745 3.425240 0.000000 0.000000 0.000000 7.125000 0.000000 0.000000 9.259062 33.424424 2.657199
0.226221 17.367081 -11.909480 -6.485330 -3.749051 2.618997 0.000000 0.000000 0.000000 -18.015679 -1.055171 -26.116462 7.397707 15.657662 50.362575 0.758803 4.400504 -18.630487 0.524590 -4.641815 -12.889759 0.000000 0.000000 0.000000 16.263592 2.592996 -34.198281 -12.712171 -18.675082 68.228500 -0.846750 -10.406200 -24.081558 -0.401508 4.068138 -11.268474 -6.321730 -0.065937 15.505656 1.406805 -1.067544 1.494843 5.328479 -0.317057 -6.962838 8.929204 3.618890 -13.545631 -2.871852 3.572980 18.165040 -2.033894 2.023754 8.089389 0.000000 0.000000 0.000000 15.580514 3.590498 -24.580987 42.903780 -49.697965 20.627691 24.078844 -7.300269 12.705785 0.000000 0.000000 0.000000 -7.125000 0.000000 0.000000 -2.211569 16.114589 -1.511857 0.000000 0.000000 0.000000 -9.241614 16.111875 29.719444 -24.570611 -35.760948 -8.037991 -15.503320 -5.292767 3.605463 0.000000 0.000000 0.000000 7.125000 0.000000 0.000000 9.078839 33.617803 2.561300
0.205486 17.437832 -11.789434 -6.483987 -3.214650 2.683387 0.000000 0.000000 0.000000 -17.933899 -0.792723 -25.405627 7.169815 15.473072 49.513386 0.750693 3.725387 -18.133288 0.537355 -4.696922 -13.046149 0.000000 0.000000 0.000000 16.153306 2.625155 -35.695256 -12.173703 -18.462603 66.537806 -0.781332 -9.582806 -22.788478 -0.422591 4.172456 -11.562310 -6.523661 -0.233584 15.767747 1.435443 -1.337479 1.546415 5.538177 -0.441237 -7.009612 9.027196 3.665243 -13.559388 -2.965161 3.630930 17.911953 -2.073591 2.044568 8.014571 0.000000 0.000000 0.000000 15.557442 2.354790 -25.540967 41.774569 -49.086198 19.770218 24.358621 -7.016856 13.016791 0.000000 0.000000 0.000000 -7.125000 0.000000 0.000000 -2.036954 15.746610 -1.408598 0.000000 0.000000 0.000000 -9.403151 16.509408 29.116247 -25.349622 -36.558629 -8.497461 -15.797935 -5.890676 3.767496 0.000000 0.000000 0.000000 7.125000 0.000000 0.000000 8.859994 33.794839 2.459809
0.183131 17.511768 -11.670782 -6.474780 -2.637754 2.750266 0.000000 0.000000 0.000000 -17.854269 -0.501541 -24.692741 6.926350 15.268995 48.594151 0.731791 3.063942 -17.555289 0.550980 -4.755107 -13.211398 0.000000 0.000000 0.000000 15.972958 2.700949 -37.037785 -11.658758 -18.241443 64.901568 -0.695423 -8.668330 -21.197124 -0.445873 4.284192 -11.877526 -6.745525 -0.382495 16.039073 1.468274 -1.587192 1.603164 5.761337 -0.554945 -7.055356 9.083881 3.686037 -13.570337 -3.018606 3.654690 17.640498 -2.097085 2.049915 7.929705 0.000000 0.000000 0.000000 15.461713 1.085210 -26.411916 40.781967 -48.525099 19.023517 24.610811 -6.925273 13.145466 0.000000 0.000000 0.000000 -7.125000 0.000000 0.000000 -1.871544 15.578367 -1.300863 0.000000 0.000000 0.000000 -9.522953 16.913882 28.390349 -26.067722 -37.274385 -8.929100 -16.079169 -6.528716 3.891889 0.000000 0.000000 0.000000 7.125000 0.000000 0.000000 8.646814 33.933329 2.370174
0.159348 17.586400 -11.553592 -6.430942 -1.999792 2.834049 0.000000 0.000000 0.000000 -17.810641 -0.222901 -24.001253 6.675644 15.051918 47.635407 0.704426 2.442998 -16.924075 0.564202 -4.810933 -13.370001 0.000000 0.000000 0.000000 15.691824 2.802828 -38.269890 -11.182785 -18.022247 63.372332 -0.600324 -7.706029 -19.417334 -0.469585 4.394918 -12.190389 -6.997383 -0.524027 16.305029 1.493624 -1.833611 1.658016 5.994160 -0.666171 -7.097456 9.113450 3.683966 -13.573642 -3.036053 3.646458 17.352744 -2.107780 2.041539 7.835048 0.000000 0.000000 0.000000 15.313008 -0.213418 -27.216326 39.899386 -48.008969 18.364837 24.814849 -6.932243 13.129360 0.000000 0.000000 0.000000 -7.125000 0.000000 0.000000 -1.730199 15.572521 -1.202795 0.000000 0.000000 0.000000 -9.602148 17.315095 27.579573 -26.722674 -37.912415 -9.328626 -16.301506 -7.207455 3.996630 0.000000 0.000000 0.000000 7.125000 0.000000 0.000000 8.478656 34.049697 2.299026
0.134308 17.659741 -11.437509 -6.341386 -1.283295 2.947080 0.000000 0.000000 0.000000 -17.817360 0.010674 -23.347842 6.424366 14.826930 46.661232 0.671015 1.875313 -16.263829 0.575190 -4.856836 -13.500621 0.000000 0.000000 0.000000 15.294827 2.918530 -39.417214 -10.759249 -17.814697 61.996463 -0.505548 -6.740668 -17.561655 -0.491560 4.495174 -12.474156 -7.276751 -0.667385 16.554663 1.506362 -2.088403 1.705741 6.231505 -0.780757 -7.133737 9.131199 3.661883 -13.568383 -3.028109 3.609042 17.049076 -2.111473 2.020736 7.731285 0.000000 0.000000 0.000000 15.118644 -1.539349 -27.966338 39.110334 -47.533293 17.780353 24.958881 -6.966651 13.000086 0.000000 0.000000 0.000000 -7.125000 0.000000 0.000000 -1.622795 15.696848 -1.123676 0.000000 0.000000 0.000000 -9.643053 17.708372 26.708579 -27.316148 -38.478492 -9.695346 -16.437931 -7.926184 4.108471 0.000000 0.000000 0.000000 7.125000 0.000000 0.000000 8.381006 34.170370 2.247231
0.108271 17.729805 -11.322167 -6.209333 -0.474794 3.100384 0.000000 0.000000 0.000000 -17.872296 0.173169 -22.747121 6.179240 14.599643 45.696609 0.634361 1.367126 -15.601322 0.582408 -4.886483 -13.585191 0.000000 0.000000 0.000000 14.783915 3.036696 -40.497505 -10.401830 -17.629540 60.822891 -0.420687 -5.826676 -15.770553 -0.510555 4.579914 -12.714060 -7.567103 -0.820526 16.778686 1.506197 -2.358725 1.741256 6.464728 -0.902516 -7.163758 9.145231 3.620683 -13.553995 -3.001387 3.543960 16.734118 -2.111585 1.987923 7.620339 0.000000 0.000000 0.000000 14.879255 -2.887397 -28.670987 38.403279 -47.094689 17.260400 25.029594 -6.971079 12.797886 0.000000 0.000000 0.000000 -7.125000 0.000000 0.000000 -1.560966 15.909255 -1.073723 0.000000 0.000000 0.000000 -9.650138 18.094325 25.798211 -27.850240 -38.977893 -10.029395 -16.478504 -8.671043 4.243849 0.000000 0.000000 0.000000 7.125000 0.000000 0.000000 8.364356 34.311529 2.213738
0.081748 17.794461 -11.207245 -6.047163 0.431744 3.301567 0.000000 0.000000 0.000000 -17.963278 0.246979 -22.211479 5.947642 14.376883 44.770116 0.597613 0.922544 -14.965929 0.585447 -4.899257 -13.621344 0.000000 0.000000 0.000000 14.178142 3.140755 -41.525997 -10.123649 -17.478475 59.900316 -0.353049 -5.027346 -14.201748 -0.526781 4.651218 -12.916439 -7.843529 -0.988473 16.971878 1.496324 -2.645911 1.759456 6.682788 -1.032319 -7.190684 9.152258 3.559026 -13.536362 -2.952934 3.448882 16.425811 -2.106560 1.942459 7.509002 0.000000 0.000000 0.000000 14.589441 -4.242808 -29.339609 37.772188 -46.692597 16.799812 25.021883 -6.911699 12.583546 0.000000 0.000000 0.000000 -7.125000 0.000000 0.000000 -1.552522 16.144097 -1.060015 0.000000 0.000000 0.000000 -9.628991 18.478245 24.863500 -28.325443 -39.413662 -10.329793 -16.431307 -9.409147 4.387713 0.000000 0.000000 0.000000 7.125000 0.000000 0.000000 8.420503 34.457808 2.198612
0.055076 17.852720 -11.092324 -5.871798 1.418692 3.545105 0.000000 0.000000 0.000000 -18.072959 0.239111 -21.738946 5.733153 14.164150 43.900108 0.562856 0.537223 -14.377444 0.586424 -4.903207 -13.632696 0.000000 0.000000 0.000000 13.516702 3.215514 -42.521755 -9.920923 -17.364972 59.223427 -0.301958 -4.379831 -12.926334 -0.541408 4.714377 -13.095669 -8.088022 -1.169210 17.139659 1.481450 -2.943654 1.760233 6.879219 -1.167475 -7.219773 9.143652 3.476355 -13.520987 -2.875796 3.323547 16.138306 -2.092864 1.884330 7.402561 0.000000 0.000000 0.000000 14.250350 -5.586656 -29.987769 37.207555 -46.325111 16.390228 24.959765 -6.802099 12.421179 0.000000 0.000000 0.000000 -7.125000 0.000000 0.000000 -1.585403 16.328205 -1.076107 0.000000 0.000000 0.000000 -9.587729 18.866892 23.917433 -28.751505 -39.798470 -10.601427 -16.333727 -10.112613 4.510114 0.000000 0.000000 0.000000 7.125000 0.000000 0.000000 8.515505 34.579687 2.198452
0.028576 17.903517 -10.977402 -5.689917 2.473713 3.826324 0.000000 0.000000 0.000000 -18.195484 0.155908 -21.330258 5.539689 13.966675 43.104676 0.531487 0.215068 -13.853124 0.587483 -4.907614 -13.645098 0.000000 0.000000 0.000000 12.823388 3.246942 -43.492127 -9.794710 -17.292756 58.799939 -0.264478 -3.926435 -11.968813 -0.553286 4.764790 -13.238893 -8.292885 -1.358682 17.288729 1.463294 -3.245530 1.743608 7.050235 -1.304571 -7.256796 9.104560 3.369664 -13.515997 -2.755174 3.163528 15.881984 -2.063496 1.811955 7.305172 0.000000 0.000000 0.000000 13.857351 -6.901251 -30.625114 36.717814 -46.000249 16.036789 24.865296 -6.673186 12.351427 0.000000 0.000000 0.000000 -7.125000 0.000000 0.000000 -1.646503 16.414669 -1.114546 0.000000 0.000000 0.000000 -9.530191 19.263343 22.967625 -29.131988 -40.137448 -10.845751 -16.214625 -10.768108 4.586667 0.000000 0.000000 0.000000 7.125000 0.000000 0.000000 8.622560 34.653419 2.210978
